<svg viewBox="-822 823.1 56.7 56.7" xml:space="preserve" xmlns="http://www.w3.org/2000/svg"><path d="M-798.734 839.656c-1.985 0-3.679.41-5.314 1.227-4.263 2.102-6.716 6.599-6.716 12.205s2.395 9.986 6.658 11.972c1.168.525 2.336.817 4.087 1.05.876.06 1.694.117 2.57 0 1.752-.233 2.92-.525 4.088-1.05 4.263-2.044 6.657-6.366 6.657-11.972s-2.453-10.103-6.716-12.205c-1.693-.818-3.387-1.227-5.314-1.227zm1.694 3.972c2.57.7 4.38 2.978 5.139 6.365.525 2.336.35 5.08-.35 7.241-1.11 3.329-3.504 5.256-6.483 5.198-2.92.058-5.372-1.87-6.482-5.198-.7-2.16-.876-4.847-.35-7.241.7-3.387 2.57-5.665 5.139-6.365a8.273 8.273 0 0 1 3.387 0zM-815.728 839.656a2.592 2.592 0 0 0-2.569 2.57c0 1.402 1.168 2.57 2.57 2.57s2.569-1.168 2.569-2.57a2.592 2.592 0 0 0-2.57-2.57zm-2.394 7.767v18.746h4.789v-18.746h-4.789zM-779.813 866.17c-2.044-.351-4.03-.643-5.664-1.578 0 0 .992-3.796 1.05-3.854 2.687.934 6.483 2.16 8.994.993 1.402-.7 2.044-1.986 1.869-3.446-.234-1.693-1.402-2.628-4.555-3.795-3.504-1.344-5.607-2.92-6.424-5.023-.409-1.05-.526-2.336-.35-3.504.525-3.211 3.036-5.43 6.832-6.131 1.11-.176 3.504-.176 4.672 0 1.693.292 3.62.934 3.62 1.168 0 .116-.992 3.562-1.05 3.679-1.694-.643-3.504-1.11-5.14-1.168-2.219-.059-4.671 1.284-4.263 3.62.292 1.46 1.227 2.161 4.672 3.563 2.57 1.05 3.738 1.752 4.789 2.803 1.46 1.46 1.927 3.153 1.927 4.847 0 1.401-.117 2.044-.642 3.153-1.227 2.628-3.68 4.147-7.417 4.555-.7.117-2.336.175-2.92.117z" fill="#ffffff" class="fill-000000"></path></svg>