<svg viewBox="0 0 40 40" xmlns="http://www.w3.org/2000/svg"><path d="M29.19 26.93a2.27 2.27 0 0 1-.34-.92 1.78 1.78 0 0 0-.49-1.01 1.15 1.15 0 0 0-.19-.14.82.82 0 0 0-.19-.09A5.42 5.42 0 0 0 27.8 21a12.08 12.08 0 0 0-2.18-3.49 5.21 5.21 0 0 1-1.56-3.37C24.08 12 24.3 8 20.5 8H20c-4.24.34-3.11 4.82-3.17 6.32a5.41 5.41 0 0 1-1.06 3 15.08 15.08 0 0 0-2.72 4.53 5.43 5.43 0 0 0-.29 2.5.57.57 0 0 0-.11.11c-.26.27-.45.61-.67.84a2 2 0 0 1-.79.38 1.46 1.46 0 0 0-.87.68 1.17 1.17 0 0 0-.13.58 5.11 5.11 0 0 0 0 .55 2.38 2.38 0 0 1 0 1A1.83 1.83 0 0 0 10.2 30a1.26 1.26 0 0 0 .94.58 10 10 0 0 1 2.78.59L14 31l-.07.14a4 4 0 0 0 2.62.48 1.71 1.71 0 0 0 1.22-.94c.58 0 1.23-.26 2.26-.31.7-.06 1.58.25 2.58.19a1.66 1.66 0 0 0 .12.31A1.88 1.88 0 0 0 24.61 32a3.36 3.36 0 0 0 2.26-1.31l-.12-.1.12.1a8.13 8.13 0 0 1 2.39-1.5 1.14 1.14 0 0 0 .65-.86 2.1 2.1 0 0 0-.72-1.4Zm-9.36-14.07a1.75 1.75 0 0 1 .17-.76 1.33 1.33 0 0 1 .43-.57 1 1 0 0 1 .6-.21.91.91 0 0 1 .58.2 1.33 1.33 0 0 1 .45.56 1.67 1.67 0 0 1 .16.74 1.83 1.83 0 0 1-.16.77 1.55 1.55 0 0 1-.21.36h-.09l-.29-.12-.22-.07a1 1 0 0 0 .19-.22 1.12 1.12 0 0 0 .08-.42.89.89 0 0 0-.06-.4.71.71 0 0 0-.18-.32.39.39 0 0 0-.27-.12.37.37 0 0 0-.26.1.74.74 0 0 0-.21.3 1.22 1.22 0 0 0-.09.42.93.93 0 0 0 0 .24 3 3 0 0 0-.61-.21 1.64 1.64 0 0 1 0-.22Zm-2.58.07a1.82 1.82 0 0 1 .08-.67 1.1 1.1 0 0 1 .29-.5.63.63 0 0 1 .42-.21.63.63 0 0 1 .41.16 1.18 1.18 0 0 1 .34.46 1.82 1.82 0 0 1 .15.66 1.4 1.4 0 0 1 0 .29h-.09a1.57 1.57 0 0 0-.39.19 1.13 1.13 0 0 0 0-.26.84.84 0 0 0-.08-.33.67.67 0 0 0-.16-.25.3.3 0 0 0-.19-.07.26.26 0 0 0-.19.11.75.75 0 0 0-.12.27 1.32 1.32 0 0 0 0 .35 1.07 1.07 0 0 0 .08.33.69.69 0 0 0 .17.25l-.17.14-.14.1a1.17 1.17 0 0 1-.27-.42 1.94 1.94 0 0 1-.16-.65Zm.19 1.47.48-.36.18-.13a2.35 2.35 0 0 1 .84-.59 1.4 1.4 0 0 1 .47-.08 2.3 2.3 0 0 1 1.22.42 7.27 7.27 0 0 0 1.06.44.92.92 0 0 1 .48.38.59.59 0 0 1 0 .47 1.6 1.6 0 0 1-1.06.84 4.7 4.7 0 0 0-.77.44 1.7 1.7 0 0 1-1 .26 1.19 1.19 0 0 1-.45-.1 1.32 1.32 0 0 1-.32-.2 4.53 4.53 0 0 0-.61-.5 1.32 1.32 0 0 1-.69-.72.48.48 0 0 1 .17-.57Zm.16 15.65a1.34 1.34 0 0 1-1.13 1.3 3.65 3.65 0 0 1-2.4-.46 9.43 9.43 0 0 0-2.87-.61 1 1 0 0 1-.72-.41 1.67 1.67 0 0 1 .12-1.24 2.54 2.54 0 0 0 0-1.13 1.53 1.53 0 0 1 0-.94 1.11 1.11 0 0 1 .69-.53 2.05 2.05 0 0 0 .92-.46c.26-.27.45-.61.67-.85a.87.87 0 0 1 .66-.33h.17a1.67 1.67 0 0 1 1 .75l.91 1.67a11.66 11.66 0 0 0 1.2 1.64 2.76 2.76 0 0 1 .73 1.59Zm-.08-1.22c-.12-.19-.26-.37-.4-.56l-.27-.35a1.08 1.08 0 0 0 .46-.09.61.61 0 0 0 .32-.33 1.34 1.34 0 0 0-.35-1.17 6.24 6.24 0 0 0-1.79-1.52 2.58 2.58 0 0 1-1.16-1.4 3.18 3.18 0 0 1 0-1.65A9.47 9.47 0 0 1 15.6 19c.1-.08 0 .15-.41 1s-1.15 2.5-.13 3.86a8.09 8.09 0 0 1 .65-2.88c.57-1.28 1.75-3.51 1.85-5.28a2.94 2.94 0 0 0 .29.19 6.22 6.22 0 0 1 .59.48 1.42 1.42 0 0 0 .87.34h.12a2 2 0 0 0 1-.29 4.57 4.57 0 0 1 .74-.42 2.07 2.07 0 0 0 1-.71A23.91 23.91 0 0 0 24 19.75a10.52 10.52 0 0 1 1.1 3 2 2 0 0 1 .52.06 4.08 4.08 0 0 0-1.1-4c-.22-.22-.23-.31-.12-.31a5.8 5.8 0 0 1 1.6 2.83A3.49 3.49 0 0 1 26 23l.21.09c1 .5 1.42.94 1.23 1.54h-.19c.15-.47-.19-.82-1.07-1.22s-1.65-.37-1.78.45v.13l-.21.1a1.72 1.72 0 0 0-.8 1.19 9.74 9.74 0 0 0-.2 1.87 8.05 8.05 0 0 1-.32 1.36 4.64 4.64 0 0 1-5.35.32Zm11.57.07a7.73 7.73 0 0 0-2.46 1.58 3.17 3.17 0 0 1-2 1.2 1.54 1.54 0 0 1-1.63-.91 2.57 2.57 0 0 1 .06-1.7 10.62 10.62 0 0 0 .46-1.9 10.49 10.49 0 0 1 .2-1.82 1.44 1.44 0 0 1 .64-1h.05a1.43 1.43 0 0 0 .88 1.38 2.19 2.19 0 0 0 1.8-.76h.21a1.08 1.08 0 0 1 .85.25 1.57 1.57 0 0 1 .39.88 2.49 2.49 0 0 0 .46 1.05c.49.54.65.91.63 1.15s-.22.41-.54.6ZM17.62 15c-.16-.13-.14-.31-.08-.31s.14.17.21.23a4.28 4.28 0 0 0 .36.33 1.88 1.88 0 0 0 1.17.45 3.15 3.15 0 0 0 1.4-.48 6.34 6.34 0 0 0 .65-.45c.16-.12.15-.26.28-.24s0 .15-.15.31a3.85 3.85 0 0 1-.69.48 3.35 3.35 0 0 1-1.49.51A2 2 0 0 1 18 15.3a5 5 0 0 1-.38-.3Z" fill="#ffffff" class="fill-000000"></path></svg>