<svg viewBox="0 0 60 60" xmlns="http://www.w3.org/2000/svg"><g fill="none" fill-rule="evenodd"><path d="M30 60c16.569 0 30-13.431 30-30C60 13.431 46.569 0 30 0 13.431 0 0 13.431 0 30c0 16.569 13.431 30 30 30Z" fill="#ffffff" class="fill-000000"></path><path d="M42.282 28.254c-1.695 0-3.068-1.453-3.068-3.244 0-1.791 1.373-3.243 3.068-3.243 1.694 0 3.067 1.452 3.067 3.243 0 1.79-1.373 3.244-3.067 3.244Zm2.04 2.86-4.138 3.742c.045.3.076.603.076.914 0 3.186-2.443 5.768-5.455 5.768-2.6 0-4.769-1.921-5.319-4.493l-10.227-3.67a4.625 4.625 0 0 1-2.907 1.04c-2.658 0-4.814-2.28-4.814-5.091 0-2.81 2.156-5.09 4.814-5.09 2.286 0 4.196 1.686 4.689 3.944l9.88 3.544c.962-1.031 2.29-1.678 3.76-1.713l1.48-4.756c-.004-.095-.013-.188-.013-.283 0-3.595 2.757-6.508 6.156-6.508 3.401 0 6.158 2.913 6.158 6.508 0 2.847-1.732 5.26-4.14 6.144ZM19.38 27.581c-.575-1.095-1.68-1.836-2.948-1.836-1.862 0-3.37 1.596-3.37 3.564s1.508 3.563 3.37 3.563c.344 0 .676-.055.988-.156l-1.601-.574c-1.291-.731-1.777-2.43-1.085-3.794.691-1.364 2.298-1.877 3.588-1.146l1.058.379Zm22.904 1.976c2.389 0 4.327-2.047 4.327-4.572 0-1.771-.953-3.307-2.345-4.067a4.121 4.121 0 0 0-1.982-.507c-2.388 0-4.324 2.047-4.324 4.574 0 2.525 1.936 4.572 4.324 4.572Zm-3.866 6.708c0-2.126-1.63-3.85-3.64-3.85-.283 0-.555.038-.819.102l2.035.73c1.29.73 1.775 2.429 1.083 3.792-.69 1.366-2.297 1.878-3.587 1.148l-2.192-.787c.458 1.571 1.843 2.713 3.48 2.713 2.01 0 3.64-1.723 3.64-3.848Z" fill="#000000" class="fill-ffffff"></path></g></svg>