<svg data-name="Layer 21" viewBox="0 0 24 24" xmlns="http://www.w3.org/2000/svg"><path d="M21 12a8.972 8.972 0 0 0-3.12-6.804 15.055 15.055 0 0 0-3.728 2.788c.033.035.066.064.098.1 2.79 3.01 5.333 7.298 4.91 9.353A8.949 8.949 0 0 0 21 12ZM12.444 5.967a9.658 9.658 0 0 1 4.44-1.52 8.964 8.964 0 0 0-9.312-.277c.493.425 2.128.585 4.113 1.8a.723.723 0 0 0 .759-.003ZM9.875 8.083c.035-.036.07-.068.104-.104a21.354 21.354 0 0 0-2.93-2.372 1.392 1.392 0 0 0-1.126-.232A8.983 8.983 0 0 0 5.06 17.73c-.773-1.91 1.858-6.504 4.815-9.647ZM12.063 9.896c-2.972 2.63-7.108 6.55-6.474 8.416a8.979 8.979 0 0 0 13.032-.23c.364-1.965-3.567-5.503-6.558-8.186Z" fill="#ffffff" class="fill-000000"></path></svg>